<?xml version="1.0" encoding="utf-8"?>
<!-- Generator: Adobe Illustrator 21.0.0, SVG Export Plug-In . SVG Version: 6.00 Build 0)  -->
<svg version="1.1" id="Layer_1" xmlns="http://www.w3.org/2000/svg" xmlns:xlink="http://www.w3.org/1999/xlink" x="0px" y="0px"
	 viewBox="0 0 1366 768" style="enable-background:new 0 0 1366 768;" xml:space="preserve">
<style type="text/css">
	.st0{fill:url(#SVGID_1_);}
	.st1{opacity:0.17;fill:#FFFF99;enable-background:new    ;}
	.st2{opacity:0.67;fill:#FFFF99;enable-background:new    ;}
	.st3{fill:#FFFF99;}
	.st4{fill:#39BCFE;}
	.st5{fill:#257EAA;}
	.st6{fill:#195472;}
	.st7{fill:#1E235C;}
	.st8{fill:#FFFFFF;}
	.st9{fill:#FFFFCC;}
</style>
<g>
	
		<linearGradient id="SVGID_1_" gradientUnits="userSpaceOnUse" x1="683" y1="-3.5" x2="683" y2="764.5" gradientTransform="matrix(1 0 0 -1 0 768)">
		<stop  offset="0.6769" style="stop-color:#4554CF"/>
		<stop  offset="1" style="stop-color:#6ADBFF"/>
	</linearGradient>
	<polygon class="st0" points="1366,771.5 0,771.5 0,221.1 0,3.5 1366,3.5 	"/>
</g>
<circle class="st1" cx="703.5" cy="267.5" r="175.5"/>
<circle class="st2" cx="703.5" cy="267.5" r="153.5"/>
<circle class="st3" cx="702" cy="268" r="133"/>
<path class="st4" d="M0.3,331.2c0,0,43.8-28.6,72.9-47.7c3.6-2.4,7.1-4.6,10.1-6.6C93,270,107,261,117,271c7,8,13,16,23,18
	c16,3,30-6,45.3,0.9c2.7,1.1,5.3,2.1,8,3.2c7.2,2.9,14.2,5.7,20.7,8.4c2.2,0.9,4.3,1.7,6.3,2.6C224,305,228,307,231,306
	c16-2,30,4,45.9,4.3c1.7-0.3,4.2-1.4,7.1-2.8c8.8-4.3,20.5-10.1,32.2-15.8c2.3-1.2,4.7-2.3,7-3.5c13.9-6.5,28.7-9.9,43.5-10.7
	c3.7-0.2,7.4-0.3,11.1-0.1c21.2,1.7,42.2,4.7,60.4,15.2c2.2,1,4.4,2,6.6,3c24.3,11,46.7,21.1,46.7,21.1c5.8,2.6,12.4,3,18.5,1
	c0,0,54.2-17.5,101.6-32.7c2.7-0.8,5.3-1.6,7.9-2.3C636,276,650,288,666,289c5,0,9-3,11-6c11-15,29-19,42.3-6
	c1.7,1.1,3.6,2.5,5.5,3.8c12.9,9.1,28.6,20.3,37.6,26.8c4.5,3.2,7.4,5.2,7.4,5.2C794,329,815,302,836.3,294.2c2-1,4-2.1,6-3.1
	c17.8-9.1,33.9-17.5,33.9-17.5c7.6-3.9,16.7-3.8,24.2,0.4l49.2,27.2c7.1,3.9,15.6,4.3,23,0.9c0,0,28.1-12.7,56.2-25.4
	c2.3-1.1,4.7-2.1,7-3c3.2-0.8,7.2-2.8,10.2-1.8c23,6,40,0,60-9c9-4,20-3,29,1.8c2.1,1,4.3,2,6.5,3c42.7,19.9,109.1,50.8,109.1,50.8
	c9.6,4.5,21.1,2.6,28.7-4.9l63.6-61.8c1.2-1.2,2.5-2.2,4-3.1l0,0c17.2-11.1,39.9,1.4,39.6,21.9l-1.3,90.2
	c-0.2,13.9-11.4,25-25.2,25.3c0,0-90.3,1.5-224.1,3.8c-2.3,0-4.7,0.1-7.1,0.1c-2.8-0.5-5.7-0.3-8.7,0.3c-3,0.6-6,1.6-9,2.6
	c-2,2-5,2-6,1c-19-17-45-11-65.5,0.4c-2-0.2-4.8-1.1-7.9-1.7s-6.3-1-9.7-0.8c-2.7,0-5.4,0.1-8.1,0.1c-45.1,0.8-92.9,1.6-142,2.4
	c-3.8,0.1-7.6,0.1-11.4,0.2C825,403,791,404,756.3,396.3c-3.9,0.1-7.8,0.1-11.7,0.2c-15.6,0.3-31.3,0.5-46.9,0.8
	c-2.7,0-5.5,0.1-8.2,0.2C656,406,625,411,591,401c-4-1-8-2-12-2.4s-8.1-0.3-12.2,0.9C548,398,537,415,521,422c-2,1-5,1-7,0
	c-16-7-29-22-48-20.8c-3.3,0.6-6.6,1.2-9.8,1.7c-29.4,5-57.5,8.2-87.3,0c-2.8,0-5.7,0.1-8.5,0.1c-197.8,3.3-345.9,5.8-345.9,5.8
	C0.1,409-11.7,397.4-11.6,383l0.2-30.5C-11.3,343.9-6.9,335.9,0.3,331.2z"/>
<path class="st5" d="M20.4,393.7l71.4-22.1c14.5-4.5,30-4.9,44.8-1.1l85.8,21.9c16.1,4.1,33,3.3,48.6-2.4c0,0,47.3-17.2,82.7-30.1
	c2.4-0.9,4.7-1.7,6.9-2.5C378,351,392,367,409,370c2,0,5,0,7-1c15-6,27-29,45.1-18.4c2.7,1,5.6,2,8.9,3.2c2.6,0.9,5.3,1.9,8.2,3
	C494,362,505,373,519,382c14,8,30,2,45,5.9c3.6,1.3,7.2,2.5,10.8,3.5c39.5,11.2,78.8,2.7,106.8-28.8c2.3-1.1,4.7-2.1,7.1-3.1
	c26.4-10.9,50.7-21,50.7-21c6.1-2.5,12.5-4.3,19-5.3c3.2-0.5,6.5-0.7,9.6-0.1c8,1.9,14,5.9,17,11.9c16,29,43,18,67,11
	c2,0,5,1,7.2,1.5c2.3,0.8,4.6,1.5,6.8,2.3c22.3,7.5,41.4,14,41.4,14c17.2,5.8,35.9,5.8,53.1-0.1c0,0,30.7-10.5,55.2-19
	c4.1-1.4,8-2.7,11.6-3.5c7,2.6,14.6,6,22.5,8.6c2.6,0.9,5.3,1.6,7.9,2.3c8.3,2,16.3,0,24-0.6c2.6-0.6,5.2-1.8,7.8-3.4
	c2.6-1.3,4.9-2.8,7.5-3.8c10.7-3.8,21.5-6.4,32.4-0.7c2.3,0.7,4.8,1.5,7.2,2.2c37.2,11.3,86.7,26.4,86.7,26.4
	c22.1,6.7,46,3.9,65.8-7.8l18.3-10.8c35.7-21,81.5-12.3,106.9,20.5l14.3,18.4c11.2,14.4,17.3,32.2,17.3,50.5v10.8
	c0,2.6,0.1,5.3,0.4,7.9l0,0c4.6,47.9-32.7,89.6-80.8,90.3c0,0-394.8,5.5-753.1,10.6c-6.1,0.1-12.1,0-18.2,0.1
	c-6.1,0.2-12.1,0.3-18.1,0.4c-283,4-533.6,7.5-533.6,7.5C-3.4,581.2-41,544.2-41,498.2V477C-41,438.8-16.1,405,20.4,393.7z"/>
<path class="st6" d="M41.9,462.1L90,444.8c16.9-6.1,34.9-8.1,52.5-6.1c2.9,0.3,5.8,0.7,8.6,0.9c21-7.9,41.4-0.3,57,13.1
	c2.6,2.2,5.2,3.5,7.9,4.9c14,6.4,27,15.4,39.3,25.1c2.3,1.1,4.4,2,6.1,2.8c3.4,1.5,5.5,2.4,5.5,2.4c27.7,12.3,59,13.3,87.4,2.9
	c0,0,67.2-24.6,110.4-40.5c2.3-0.8,4.5-1.6,6.6-2.4C498,443,525,455,549,436c6-5,13-4,19.6-2.4c3.2,0.8,6.4,1.7,9.5,2.8
	c6.3,2.1,12.4,4.8,18.3,8.1l44.9,24.6c29,15.9,63.4,18.7,94.7,7.7L900.8,419c32.4-11.4,68.3-7.9,97.9,9.6c0,0,9.6,5.7,23.2,13.7
	c1.9,1.1,4,2.3,6.1,3.6c16,14.2,36,21.2,54.4,32.1c2.1,1.2,4.1,2.4,6.1,3.6c13.6,8,23.2,13.7,23.2,13.7
	c41.7,24.6,94.3,20.9,132.1-9.4l0,0c48.8-39,119.6-32.7,160.7,14.3l2.1,2.3c15.4,17.5,25.1,39.3,28,62.4l7.7,62.1
	c8.8,70.7-47.2,132.7-118.5,131.1l-1252.3-29C0.2,727.5-53,662.7-40.7,592.4l7.1-40.6C-26.4,510.5,2.4,476.2,41.9,462.1z"/>
<path class="st7" d="M-26,603l105-51c0,0,65.6,0,118.8,0c2.8,0,5.6,0,8.3,0s5.4,0,8,0c28.8,0,50.8,0,50.8,0l118,63l194-46
	c0,0,7.2,0.6,18.4,1.7c3.8,0.3,8,0.7,12.5,1.1c4.5,0.4,9.4,0.9,14.5,1.3c5.1,0.5,10.5,0.9,15.9,1.4c43.7,3.9,94.6,8.5,94.6,8.5
	l12,43h118l9-45h93l113,28l60-28l123-9l171,54l15,192L-85,834L-26,603z"/>
<g>
	<path class="st8" d="M942.8,97.8c-0.3,5-2.7,9.4-6.3,12.6l-6.7-0.1l-2.9-0.1l-17.8-0.3c-4-3.7-6.3-8.8-6-14.4
		c0.2-3.1,1.2-5.9,2.7-8.4c3.7-5.8,10.6-9.4,18.3-9c7.8,0.5,14.2,5,17.1,11.3C942.4,91.9,943,94.8,942.8,97.8z"/>
	<path class="st8" d="M966.4,108.5c0,0.6-0.1,1.2-0.2,1.7c0,0.2-0.1,0.5-0.1,0.7c0,0.1-0.1,0.3-0.1,0.4c0-0.1-0.1-0.3-0.1-0.4
		l-29.4-0.5l-6.7-0.1l-2.9-0.1c-0.2-1.3-0.3-2.7-0.2-4.1c0.2-2.8,1-5.5,2.4-7.8c2.6-4.4,7-7.7,12.2-9c2-0.5,4.2-0.7,6.4-0.6
		c1.2,0.1,2.3,0.2,3.4,0.5c7.5,1.7,13.3,7.3,15,14.3l0,0C966.3,105.1,966.5,106.8,966.4,108.5z"/>
	
		<ellipse transform="matrix(6.009680e-02 -0.9982 0.9982 6.009680e-02 820.397 1055.4701)" class="st8" cx="970.7" cy="92.1" rx="18.6" ry="19.9"/>
	<path class="st8" d="M1005.3,108.7c-0.1,1-0.2,2-0.4,2.9l-11.8-0.2l-27.1-0.5c0,0.1-0.1,0.3-0.1,0.4c0-0.1-0.1-0.3-0.1-0.4
		c-0.1-0.3-0.1-0.5-0.1-0.8c-0.2-1.2-0.3-2.5-0.2-3.8c0.1-1,0.2-1.9,0.4-2.8l0,0c2-8.8,10.6-15.2,20.6-14.6c1.3,0.1,2.6,0.3,3.8,0.6
		c4,1,7.5,3.1,10.2,6C1003.8,99,1005.6,103.7,1005.3,108.7z"/>
	<path class="st8" d="M930.4,106.3c-0.1,1.4-0.3,2.7-0.7,3.9l-2.9-0.1l-17.8-0.3l-9.7-0.2l-8.2-0.2c-0.5-1.8-0.7-3.7-0.6-5.6
		c0.1-1.2,0.3-2.4,0.6-3.6c1.8-6.7,7.5-11.8,14.5-13.3c1.9-0.4,3.8-0.6,5.9-0.5c7.9,0.5,14.5,5.2,17.3,11.7
		C930.1,100.8,930.6,103.5,930.4,106.3z"/>
	<path class="st8" d="M899.4,109.7l-8.2-0.2l-20.8-0.4c1.8-6.2,8.1-10.6,15.3-10.1c2,0.1,3.9,0.6,5.5,1.4
		C895.3,102.2,898.3,105.6,899.4,109.7z"/>
	<path class="st8" d="M1025,109.4c-0.1,0.9-0.2,1.8-0.4,2.6l-19.7-0.4l-11.8-0.2c-0.3-1.3-0.4-2.6-0.3-4c0.3-5.1,3.3-9.5,7.7-12
		c2.7-1.5,5.9-2.3,9.3-2.1C1018.7,93.9,1025.5,101.1,1025,109.4z"/>
	<path class="st8" d="M967.1,109.8c0,0.1,0,0.3-0.1,0.4c0-0.1-0.1-0.3-0.1-0.4H967.1z"/>
</g>
<g>
	<path class="st8" d="M127.1,105.9c-0.1,7-3.2,13.3-8.2,17.9l-9.4,0.2l-4,0.1l-25,0.6c-5.8-4.9-9.4-12-9.2-19.9
		c0.1-4.3,1.3-8.4,3.3-11.9c4.8-8.3,14.3-13.8,25-13.6c10.9,0.2,20.2,6.2,24.6,14.8C126.2,97.6,127.2,101.6,127.1,105.9z"/>
	<path class="st8" d="M160.7,119.5c0,0.8-0.1,1.6-0.2,2.4c0,0.3-0.1,0.6-0.1,1c0,0.2-0.1,0.4-0.1,0.5c-0.1-0.2-0.1-0.4-0.1-0.5
		l-41.2,0.9l-9.4,0.2l-4,0.1c-0.4-1.8-0.6-3.8-0.6-5.7c0.1-4,1.1-7.7,2.9-11.1c3.3-6.3,9.3-11.1,16.5-13.3c2.8-0.8,5.9-1.3,9-1.2
		c1.6,0,3.2,0.2,4.8,0.5c10.6,1.9,19.1,9.5,21.8,19.1l0,0C160.5,114.7,160.8,117,160.7,119.5z"/>
	
		<ellipse transform="matrix(1.919162e-02 -0.9998 0.9998 1.919162e-02 66.3157 260.3074)" class="st8" cx="165.8" cy="96.4" rx="26.1" ry="27.9"/>
	<path class="st8" d="M215.3,117.5c0,1.4-0.2,2.8-0.4,4.1l-16.5,0.4l-37.9,0.8c0,0.2-0.1,0.4-0.1,0.5c-0.1-0.2-0.1-0.4-0.1-0.5
		c-0.1-0.4-0.2-0.7-0.2-1.1c-0.4-1.7-0.5-3.5-0.5-5.3c0-1.3,0.2-2.7,0.4-4l0,0c2.3-12.5,14-21.8,28-21.6c1.8,0,3.6,0.2,5.4,0.6
		c5.7,1.2,10.7,3.9,14.6,7.8C212.5,104.1,215.4,110.5,215.3,117.5z"/>
	<path class="st8" d="M110.3,118.5c0,1.9-0.3,3.7-0.7,5.5l-4,0.1l-25,0.6L67,125l-11.4,0.3c-0.8-2.5-1.2-5.1-1.1-7.8
		c0-1.7,0.2-3.4,0.6-5c2.2-9.4,9.8-16.9,19.6-19.5c2.6-0.7,5.4-1,8.2-1c11.1,0.2,20.7,6.5,24.9,15.4
		C109.5,110.7,110.4,114.5,110.3,118.5z"/>
	<path class="st8" d="M67,125l-11.4,0.3l-29.1,0.6c2.2-8.8,10.7-15.2,20.8-15.1c2.8,0.1,5.4,0.6,7.8,1.6
		C60.9,114.7,65.3,119.3,67,125z"/>
	<path class="st8" d="M242.8,117.4c0,1.3-0.2,2.5-0.4,3.7l-27.6,0.6l-16.5,0.4c-0.5-1.8-0.7-3.6-0.7-5.5c0.1-7.2,4.1-13.5,10.1-17.2
		c3.7-2.3,8.1-3.6,12.8-3.5C233.1,96.1,243.1,105.7,242.8,117.4z"/>
	<path class="st8" d="M161.8,121.3c0,0.2,0,0.4-0.1,0.6c-0.1-0.2-0.1-0.4-0.2-0.5L161.8,121.3z"/>
</g>
<circle class="st8" cx="242.5" cy="152.5" r="4.5"/>
<ellipse class="st8" cx="1141" cy="169.5" rx="4" ry="3.5"/>
<ellipse class="st8" cx="726.5" cy="105" rx="3.5" ry="4"/>
<polygon class="st7" points="110.7,286.5 45.8,373 83.5,371.4 24.2,444.3 81.1,444.3 5,501.9 98.7,501.9 110.7,501.9 110.7,566 
	132.3,566 132.3,497.9 226,497.9 149.1,442.7 202,442.7 141.9,373 190,373 115.5,278.5 "/>
<polygon class="st7" points="1226.9,300.6 1157.6,392.9 1197.8,391.2 1134.5,469 1195.2,469 1114,530.6 1214,530.6 1226.9,530.6 
	1226.9,599 1250,599 1250,526.3 1350,526.3 1267.9,467.3 1324.3,467.3 1260.2,392.9 1311.5,392.9 1232,292 "/>
<polygon class="st7" points="442.1,441.1 402.8,493.5 425.6,492.5 389.7,536.7 424.1,536.7 378,571.7 434.8,571.7 442.1,571.7 
	442.1,610.5 455.2,610.5 455.2,569.2 512,569.2 465.4,535.7 497.4,535.7 461,493.5 490.2,493.5 445,436.2 "/>
<polygon class="st7" points="807,529.7 780.6,564.9 796,564.3 771.8,593.9 795,593.9 764,617.4 802.2,617.4 807,617.4 807,643.5 
	815.8,643.5 815.8,615.8 854,615.8 822.7,593.3 844.2,593.3 819.8,564.9 839.3,564.9 809,526.4 "/>
<polygon class="st6" points="609.9,417.1 600.8,429.3 606.1,429.1 597.7,439.3 605.7,439.3 595,447.5 608.2,447.5 609.9,447.5 
	609.9,456.5 612.9,456.5 612.9,446.9 626.1,446.9 615.3,439.1 622.7,439.1 614.3,429.3 621.1,429.3 610.6,416 "/>
<polygon class="st6" points="686.9,447.1 677.7,459.3 683,459.1 674.7,469.3 682.7,469.3 672,477.5 685.2,477.5 686.9,477.5 
	686.9,486.5 689.9,486.5 689.9,476.9 703.1,476.9 692.3,469.1 699.7,469.1 691.3,459.3 698,459.3 687.5,446 "/>
<polygon class="st6" points="863.8,397.1 854.7,409.3 860,409.1 851.6,419.3 859.6,419.3 848.9,427.5 862.1,427.5 863.8,427.5 
	863.8,436.5 866.9,436.5 866.9,426.9 880.1,426.9 869.2,419.1 876.7,419.1 868.2,409.3 875,409.3 864.5,396 "/>
<polygon class="st6" points="237.8,438.1 228.6,450.3 233.9,450.1 225.6,460.4 233.6,460.4 222.9,468.5 236.1,468.5 237.8,468.5 
	237.8,477.5 240.8,477.5 240.8,467.9 254,467.9 243.2,460.1 250.6,460.1 242.2,450.3 248.9,450.3 238.4,437 "/>
<polygon class="st6" points="325.8,460.1 316.6,472.3 321.9,472.1 313.6,482.4 321.6,482.4 310.9,490.5 324.1,490.5 325.8,490.5 
	325.8,499.5 328.8,499.5 328.8,489.9 342,489.9 331.2,482.1 338.6,482.1 330.2,472.3 336.9,472.3 326.4,459 "/>
<polygon class="st6" points="1113.8,458.1 1104.6,470.3 1109.9,470.1 1101.6,480.3 1109.6,480.3 1098.9,488.5 1112.1,488.5 
	1113.8,488.5 1113.8,497.5 1116.8,497.5 1116.8,487.9 1130,487.9 1119.2,480.1 1126.6,480.1 1118.2,470.3 1124.9,470.3 1114.4,457 
	"/>
<polygon class="st5" points="626.1,378.4 621.7,384.3 624.2,384.2 620.2,389.2 624.1,389.2 618.9,393.1 625.3,393.1 626.1,393.1 
	626.1,397.5 627.6,397.5 627.6,392.8 634,392.8 628.7,389.1 632.4,389.1 628.2,384.3 631.5,384.3 626.4,377.8 "/>
<polygon class="st5" points="277.1,368.4 272.7,374.3 275.2,374.2 271.2,379.2 275.1,379.2 269.9,383.1 276.3,383.1 277.1,383.1 
	277.1,387.5 278.6,387.5 278.6,382.8 285,382.8 279.7,379.1 283.4,379.1 279.2,374.3 282.5,374.3 277.4,367.8 "/>
<polygon class="st5" points="440.1,334.4 435.7,340.3 438.2,340.2 434.2,345.2 438.1,345.2 432.9,349.1 439.3,349.1 440.1,349.1 
	440.1,353.5 441.6,353.5 441.6,348.8 448,348.8 442.7,345.1 446.4,345.1 442.2,340.3 445.5,340.3 440.4,333.8 "/>
<polygon class="st5" points="492.1,344.4 487.7,350.3 490.2,350.2 486.2,355.2 490.1,355.2 484.9,359.1 491.3,359.1 492.1,359.1 
	492.1,363.5 493.6,363.5 493.6,358.8 500,358.8 494.7,355.1 498.4,355.1 494.2,350.3 497.5,350.3 492.4,343.8 "/>
<polygon class="st5" points="997.1,344.4 992.7,350.3 995.2,350.2 991.2,355.2 995.1,355.2 989.9,359.1 996.3,359.1 997.1,359.1 
	997.1,363.5 998.6,363.5 998.6,358.8 1005,358.8 999.7,355.1 1003.4,355.1 999.2,350.3 1002.5,350.3 997.4,343.8 "/>
<polygon class="st5" points="884.1,347.4 879.7,353.3 882.2,353.2 878.2,358.2 882.1,358.2 876.9,362.1 883.3,362.1 884.1,362.1 
	884.1,366.5 885.6,366.5 885.6,361.8 892,361.8 886.7,358.1 890.4,358.1 886.2,353.3 889.5,353.3 884.4,346.8 "/>
<polygon class="st4" points="960.1,286.4 955.7,292.3 958.2,292.2 954.2,297.2 958.1,297.2 952.9,301.1 959.3,301.1 960.1,301.1 
	960.1,305.5 961.6,305.5 961.6,300.8 968,300.8 962.7,297.1 966.4,297.1 962.2,292.3 965.5,292.3 960.4,285.8 "/>
<polygon class="st5" points="683.1,344.4 678.7,350.3 681.2,350.2 677.2,355.2 681.1,355.2 675.9,359.1 682.3,359.1 683.1,359.1 
	683.1,363.5 684.6,363.5 684.6,358.8 691,358.8 685.7,355.1 689.4,355.1 685.2,350.3 688.5,350.3 683.4,343.8 "/>
<polygon class="st4" points="887.1,253.4 882.7,259.3 885.2,259.2 881.2,264.2 885.1,264.2 879.9,268.1 886.3,268.1 887.1,268.1 
	887.1,272.5 888.6,272.5 888.6,267.8 895,267.8 889.7,264.1 893.4,264.1 889.2,259.3 892.5,259.3 887.4,252.8 "/>
<polygon class="st4" points="309.1,276.4 304.7,282.3 307.2,282.2 303.2,287.2 307.1,287.2 301.9,291.1 308.3,291.1 309.1,291.1 
	309.1,295.5 310.6,295.5 310.6,290.8 317,290.8 311.7,287.1 315.4,287.1 311.2,282.3 314.5,282.3 309.4,275.8 "/>
<polygon class="st4" points="494.8,305.4 491.8,309.4 493.5,309.4 490.8,312.8 493.4,312.8 489.9,315.5 494.3,315.5 494.8,315.5 
	494.8,318.5 495.8,318.5 495.8,315.3 500.2,315.3 496.6,312.7 499.1,312.7 496.3,309.4 498.6,309.4 495.1,305 "/>
<g>
	<path class="st7" d="M958.9,590.8h-0.8l-3.8,0.1l-3.2,0.1h-1.5c0-4.2-0.6-8.1-1.6-11.5c-2.2-7.7-6.7-13.1-12.5-13.9
		c3-2.5,6.4-3.8,9.8-3.4c4.7,0.6,8.5,4.4,10.9,10c1.9,4.3,2.9,9.7,2.8,15.7C959,588.8,958.9,589.8,958.9,590.8z"/>
	<path class="st7" d="M975.6,561.5c-5.4,2.7-10.4,9.3-13.1,18.6c-0.1,0.3-0.2,0.6-0.3,0.9c-0.9,3.2-1.5,6.5-1.7,9.7h-1.6h-0.8
		l-3.8,0.1l-3.2,0.1c0.1-2.1,0.4-4.2,0.8-6.3c0.3-1.6,0.7-3.1,1.2-4.7c0.9-2.9,1.9-5.5,3.2-7.8C961.2,562.7,968.9,558.2,975.6,561.5
		z"/>
	<path class="st7" d="M980.7,571.9c-5.4,2.7-10.4,9.3-13.1,18.6c0,0,0,0,0,0.1l-7.1,0.1h-1.6h-0.8c0-0.1,0.1-0.3,0.1-0.4
		c0.3-0.9,0.5-1.7,0.8-2.6c0.9-2.5,2-4.8,3.2-6.8C967.2,572.7,974.4,568.8,980.7,571.9z"/>
	<path class="st7" d="M954.2,590.9L951,591h-1.5l-5.5,0.1c-2.1-6.4-5.8-11-10.6-12.4c3.1-2.1,6.5-2.9,9.8-1.9
		c1.7,0.5,3.3,1.4,4.7,2.7c1.5,1.4,2.8,3.2,3.9,5.2C952.8,586.5,953.6,588.6,954.2,590.9z"/>
</g>
<g>
	<path class="st7" d="M32.4,579.5l-0.8,0.3L28,581l-3,1l-1.4,0.5c-1.3-4-3-7.5-5-10.5c-4.5-6.7-10.4-10.5-16.1-9.4
		c2.1-3.3,4.9-5.6,8.3-6.2c4.6-0.8,9.4,1.6,13.4,6.2c3.1,3.6,5.7,8.4,7.5,14.1C31.9,577.6,32.1,578.5,32.4,579.5z"/>
	<path class="st7" d="M39.4,546.5c-4.3,4.2-7,12.1-6.8,21.8c0,0.3,0,0.6,0,0.9c0.1,3.3,0.6,6.6,1.3,9.8l-1.5,0.5l-0.8,0.3L28,581
		l-3,1c-0.5-2-0.9-4.1-1.1-6.2c-0.2-1.6-0.3-3.2-0.3-4.8c-0.1-3,0.2-5.8,0.6-8.4C26,552.1,32,545.5,39.4,546.5z"/>
	<path class="st7" d="M47.4,554.9c-4.3,4.2-7,12.1-6.8,21.8c0,0,0,0,0,0.1l-6.7,2.3l-1.5,0.5l-0.8,0.3c0-0.1,0-0.3,0-0.4
		c0-0.9,0-1.8,0-2.7c0.1-2.7,0.4-5.2,1-7.4C34.8,559.7,40.5,553.9,47.4,554.9z"/>
	<path class="st7" d="M28,581l-3,1l-1.4,0.5l-5.2,1.8c-3.9-5.4-8.9-8.7-13.9-8.6c2.3-3,5.3-4.7,8.7-4.8c1.8-0.1,3.6,0.3,5.3,1.1
		c1.9,0.8,3.6,2.1,5.3,3.8C25.3,577.3,26.7,579,28,581z"/>
</g>
<g>
	<path class="st7" d="M183.7,561.8h-1.2l-5.5,0.1l-4.5,0.1h-2.2c0-6-0.8-11.5-2.3-16.5c-3.2-11.1-9.7-18.8-18-19.9
		c4.4-3.6,9.2-5.4,14.1-4.8c6.7,0.9,12.3,6.3,15.7,14.3c2.7,6.2,4.2,13.9,4.1,22.4C183.8,559,183.8,560.4,183.7,561.8z"/>
	<path class="st7" d="M207.7,520c-7.8,3.8-14.9,13.3-18.9,26.6c-0.1,0.4-0.3,0.9-0.4,1.3c-1.3,4.6-2.1,9.3-2.4,13.9h-2.3h-1.2
		l-5.5,0.1l-4.5,0.1c0.2-3,0.6-6,1.2-8.9c0.4-2.2,1-4.5,1.7-6.7c1.2-4.1,2.8-7.8,4.5-11.1C187,521.7,198,515.3,207.7,520z"/>
	<path class="st7" d="M215.1,534.9c-7.8,3.8-14.9,13.3-18.9,26.6v0.1l-10.2,0.2h-2.3h-1.2c0-0.2,0.1-0.4,0.2-0.6
		c0.4-1.2,0.8-2.5,1.2-3.6c1.3-3.6,2.9-6.8,4.6-9.7C195.6,535.9,206,530.5,215.1,534.9z"/>
	<path class="st7" d="M177,561.9l-4.5,0.1h-2.2l-7.9,0.1c-3-9.1-8.4-15.8-15.3-17.7c4.5-3,9.4-4.1,14.1-2.8c2.5,0.7,4.7,2,6.8,3.9
		c2.2,2,4.1,4.5,5.6,7.5C175,555.7,176.1,558.7,177,561.9z"/>
</g>
<g>
	<path class="st7" d="M1155.9,582.8h-0.8l-3.8,0.1l-3.2,0.1h-1.5c0-4.2-0.6-8.1-1.6-11.5c-2.2-7.7-6.7-13.1-12.5-13.9
		c3-2.5,6.4-3.8,9.8-3.4c4.7,0.6,8.5,4.4,10.9,10c1.9,4.3,2.9,9.7,2.8,15.7C1156,580.8,1155.9,581.8,1155.9,582.8z"/>
	<path class="st7" d="M1172.6,553.5c-5.4,2.7-10.4,9.3-13.1,18.6c-0.1,0.3-0.2,0.6-0.3,0.9c-0.9,3.2-1.5,6.5-1.7,9.7h-1.6h-0.8
		l-3.8,0.1l-3.2,0.1c0.1-2.1,0.4-4.2,0.8-6.3c0.3-1.6,0.7-3.1,1.2-4.7c0.9-2.9,1.9-5.5,3.2-7.8
		C1158.2,554.7,1165.9,550.2,1172.6,553.5z"/>
	<path class="st7" d="M1177.7,563.9c-5.4,2.7-10.4,9.3-13.1,18.6c0,0,0,0,0,0.1l-7.1,0.1h-1.6h-0.8c0-0.1,0.1-0.3,0.1-0.4
		c0.3-0.9,0.5-1.7,0.8-2.6c0.9-2.5,2-4.8,3.2-6.8C1164.2,564.7,1171.4,560.8,1177.7,563.9z"/>
	<path class="st7" d="M1151.2,582.9l-3.2,0.1h-1.5l-5.5,0.1c-2.1-6.4-5.8-11-10.6-12.4c3.1-2.1,6.5-2.9,9.8-1.9
		c1.7,0.5,3.3,1.4,4.7,2.7c1.5,1.4,2.8,3.2,3.9,5.2C1149.8,578.5,1150.6,580.6,1151.2,582.9z"/>
</g>
<g>
	<path class="st9" d="M428.4,201.8c19-16.5,37.9-33,56.9-49.6c-20.8,14.2-41.6,28.4-62.4,42.5L428.4,201.8z"/>
	
		<ellipse transform="matrix(0.7855 -0.6189 0.6189 0.7855 -31.4776 305.9431)" class="st9" cx="425.6" cy="198.4" rx="4.6" ry="4.6"/>
</g>
<g>
	<path class="st9" d="M1291.4,72.7c-15.2-13.9-30.4-27.7-45.7-41.6c13.5,15.6,27,31.2,40.5,46.8L1291.4,72.7z"/>
	<ellipse transform="matrix(0.7093 -0.705 0.705 0.7093 321.7194 930.5702)" class="st9" cx="1289" cy="75.3" rx="3.7" ry="3.7"/>
</g>
</svg>
