<?xml version="1.0" encoding="utf-8"?>
<!-- Generator: Adobe Illustrator 21.0.0, SVG Export Plug-In . SVG Version: 6.00 Build 0)  -->
<svg version="1.1" id="Layer_1" xmlns="http://www.w3.org/2000/svg" xmlns:xlink="http://www.w3.org/1999/xlink" x="0px" y="0px"
	 viewBox="0 0 668 568" style="enable-background:new 0 0 668 568;" xml:space="preserve">
<style type="text/css">
	.st0{fill:#1C295D;}
	.st1{fill:#EBF782;}
	.st2{fill:#704FFF;stroke:#704FFF;stroke-miterlimit:10;}
	.st3{fill:url(#SVGID_1_);}
	.st4{fill:url(#SVGID_2_);}
	.st5{fill:none;stroke:#6D67D6;stroke-miterlimit:10;}
	.st6{fill:url(#SVGID_3_);}
	.st7{fill:url(#SVGID_4_);}
	.st8{fill:url(#SVGID_5_);}
	.st9{fill:url(#SVGID_6_);}
	.st10{fill:#524E90;}
	.st11{fill:url(#SVGID_7_);}
	.st12{fill:url(#SVGID_8_);}
	.st13{fill:#A1A66F;}
	.st14{fill:url(#SVGID_9_);}
	.st15{fill:url(#SVGID_10_);}
	.st16{fill:url(#SVGID_11_);}
	.st17{fill:url(#SVGID_12_);}
	.st18{fill:none;}
	.st19{fill:url(#SVGID_13_);}
	.st20{fill:url(#SVGID_14_);}
	.st21{fill:url(#SVGID_15_);}
	.st22{fill:url(#SVGID_16_);stroke:#2A73FF;stroke-miterlimit:10;}
	.st23{fill:url(#SVGID_17_);stroke:#2A73FF;stroke-miterlimit:10;}
	.st24{fill:url(#SVGID_18_);stroke:#2A73FF;stroke-miterlimit:10;}
	.st25{fill:#8589BD;}
	.st26{fill:url(#SVGID_19_);}
	.st27{fill:url(#SVGID_20_);}
	.st28{fill:url(#SVGID_21_);}
	.st29{fill:url(#SVGID_22_);}
	.st30{fill:url(#SVGID_23_);}
	.st31{fill:url(#SVGID_24_);}
	.st32{fill:url(#SVGID_25_);}
	.st33{fill:url(#SVGID_26_);}
	.st34{fill:url(#SVGID_27_);}
	.st35{fill:url(#SVGID_28_);}
	.st36{fill:url(#SVGID_29_);}
	.st37{fill:url(#SVGID_30_);}
	.st38{fill:url(#SVGID_31_);}
	.st39{fill:url(#SVGID_32_);}
	.st40{fill:url(#SVGID_33_);}
	.st41{fill:url(#SVGID_34_);}
	.st42{fill:url(#SVGID_35_);}
	.st43{fill:url(#SVGID_36_);}
	.st44{fill:url(#SVGID_37_);}
	.st45{fill:url(#SVGID_38_);}
	.st46{fill:url(#SVGID_39_);}
	.st47{fill:url(#SVGID_40_);}
	.st48{fill:url(#SVGID_41_);}
	.st49{fill:url(#SVGID_42_);}
	.st50{fill:url(#SVGID_43_);}
	.st51{fill:url(#SVGID_44_);}
	.st52{fill:url(#SVGID_45_);}
	.st53{fill:url(#SVGID_46_);}
	.st54{fill:url(#SVGID_47_);}
	.st55{fill:url(#SVGID_48_);}
	.st56{fill:url(#SVGID_49_);}
	.st57{fill:url(#SVGID_50_);}
	.st58{fill:url(#SVGID_51_);}
	.st59{fill:none;stroke:#FFFFFF;stroke-miterlimit:10;}
	.st60{fill:#F9F9F9;}
	.st61{fill:url(#SVGID_52_);}
	.st62{fill:url(#SVGID_53_);}
	.st63{fill:url(#SVGID_54_);}
	.st64{fill:url(#SVGID_55_);}
	.st65{fill:url(#SVGID_56_);}
	.st66{fill:url(#SVGID_57_);}
	.st67{fill:url(#SVGID_58_);}
	.st68{fill:url(#SVGID_59_);}
	.st69{fill:url(#SVGID_60_);}
	.st70{fill:url(#SVGID_61_);}
	.st71{fill:url(#SVGID_62_);}
	.st72{fill:url(#SVGID_63_);}
	.st73{fill:url(#SVGID_64_);}
	.st74{fill:url(#SVGID_65_);}
	.st75{fill:url(#SVGID_66_);}
	.st76{fill:#2A3E8D;}
	.st77{fill:#99A565;}
	.st78{fill:url(#SVGID_67_);}
	.st79{fill:none;stroke:#F7F895;stroke-width:6;stroke-miterlimit:10;}
	.st80{fill:#303469;}
	.st81{fill:#F1F9A8;}
	.st82{fill:#9EA67B;}
	.st83{fill:url(#SVGID_68_);}
	.st84{fill:#BA96FD;stroke:#BA96FD;stroke-miterlimit:10;}
	.st85{fill:#704FFF;}
</style>
<path class="st0" d="M682,172.8"/>
<path class="st0" d="M-10,143"/>
<path class="st1" d="M452,531"/>
<path class="st2" d="M389.5,499.5"/>
<g>
	<path class="st0" d="M164.5,152.2"/>
	<g>
		
			<linearGradient id="SVGID_1_" gradientUnits="userSpaceOnUse" x1="97.5041" y1="493.7779" x2="102.6273" y2="430.5527" gradientTransform="matrix(1 0 0 -1 0 570)">
			<stop  offset="0" style="stop-color:#9D99E3"/>
			<stop  offset="0.7359" style="stop-color:#4554CF"/>
		</linearGradient>
		<path class="st3" d="M132.5,104.8c2.5,20.6-9.9,39.1-27.8,41.2c-17.9,2.2-34.4-12.7-36.9-33.3s9.9-39.1,27.8-41.2
			C113.5,69.4,130,84.2,132.5,104.8z"/>
	</g>
	<g>
		
			<linearGradient id="SVGID_2_" gradientUnits="userSpaceOnUse" x1="38.1099" y1="417.396" x2="70.6292" y2="360.6695" gradientTransform="matrix(1 0 0 -1 0 570)">
			<stop  offset="0" style="stop-color:#9D99E3"/>
			<stop  offset="0.7359" style="stop-color:#4554CF"/>
		</linearGradient>
		<path class="st4" d="M86.9,177.3c2.5,20.6-9.9,39.1-27.8,41.2c-17.9,2.2-34.4-12.7-36.9-33.3S32.1,146.1,50,144
			C67.8,141.8,84.4,156.7,86.9,177.3z"/>
	</g>
	<path class="st5" d="M160.3,270.9c-2.4,6.8-5.7,17.6-8,31.2c-1.6,9.1-2.1,15.7-2.3,18c-1.1,12.1-5.9,31.8-22.6,64.1"/>
	<g>
		
			<linearGradient id="SVGID_3_" gradientUnits="userSpaceOnUse" x1="119.9596" y1="326.5969" x2="148.071" y2="285.5758" gradientTransform="matrix(1 0 0 -1 0 570)">
			<stop  offset="0" style="stop-color:#9D99E3"/>
			<stop  offset="0.5513" style="stop-color:#4554CF"/>
		</linearGradient>
		<path class="st6" d="M152.7,256.6c-1,15.8-13,27.8-26.6,27c-13.6-0.8-24-14.4-22.9-30.2c1-15.8,13-27.8,26.6-27
			S153.7,240.9,152.7,256.6z"/>
	</g>
	<g>
		
			<linearGradient id="SVGID_4_" gradientUnits="userSpaceOnUse" x1="39.1806" y1="460.2555" x2="76.7281" y2="410.2071" gradientTransform="matrix(1 0 0 -1 0 570)">
			<stop  offset="0" style="stop-color:#FCFCDB"/>
			<stop  offset="0.5308" style="stop-color:#F7F895"/>
		</linearGradient>
		<path class="st7" d="M92.7,127.1c10.4,18,6.1,39.8-9.5,48.8s-36.7,1.7-47-16.2s-6.1-39.8,9.5-48.8S82.3,109.2,92.7,127.1z"/>
	</g>
	<g>
		
			<linearGradient id="SVGID_5_" gradientUnits="userSpaceOnUse" x1="165.3917" y1="349.9275" x2="152.893" y2="301.1176" gradientTransform="matrix(1 0 0 -1 0 570)">
			<stop  offset="0" style="stop-color:#9D99E3"/>
			<stop  offset="0.5513" style="stop-color:#00307C"/>
		</linearGradient>
		<path class="st8" d="M183.7,243c1.9,15.9-7.7,30.1-21.4,31.8c-13.8,1.7-26.5-9.8-28.5-25.7c-1.9-15.9,7.7-30.1,21.4-31.8
			C169.1,215.7,181.8,227.2,183.7,243z"/>
	</g>
	<g>
		
			<linearGradient id="SVGID_6_" gradientUnits="userSpaceOnUse" x1="197.074" y1="395.6277" x2="156.1655" y2="344.6189" gradientTransform="matrix(1 0 0 -1 0 570)">
			<stop  offset="0" style="stop-color:#9D99E3"/>
			<stop  offset="0.7359" style="stop-color:#4554CF"/>
		</linearGradient>
		<path class="st9" d="M208.2,196.9c2.5,20.6-9.9,39.1-27.8,41.2c-17.9,2.2-34.4-12.7-36.9-33.3s9.9-39.1,27.8-41.2
			C189.1,161.4,205.7,176.3,208.2,196.9z"/>
	</g>
	<path class="st10" d="M130.1,96.5c-2.7,0.9-6.7,2.5-10.6,5.7c-2,1.6-5.2,4.3-4.7,5.8c0.4,1.2,3.3,1.9,13.7,0.2"/>
	<g>
		
			<linearGradient id="SVGID_7_" gradientUnits="userSpaceOnUse" x1="93.0431" y1="421.7184" x2="133.5576" y2="377.8189" gradientTransform="matrix(0.9968 8.030769e-02 8.030769e-02 -0.9968 -45.3068 621.2147)">
			<stop  offset="0.1333" style="stop-color:#FCFCDB"/>
			<stop  offset="0.9718" style="stop-color:#F7F895"/>
		</linearGradient>
		<path class="st11" d="M131.9,229.4c4.5,18.2-4.7,36-20.5,39.9c-15.8,3.9-32.2-7.7-36.6-25.9s4.7-36,20.5-39.9
			S127.5,211.3,131.9,229.4z"/>
	</g>
	<g>
		
			<linearGradient id="SVGID_8_" gradientUnits="userSpaceOnUse" x1="171.3954" y1="388.4183" x2="134.4128" y2="334.6374" gradientTransform="matrix(1 0 0 -1 0 570)">
			<stop  offset="0.1333" style="stop-color:#FCFCDB"/>
			<stop  offset="0.4026" style="stop-color:#F7F895"/>
		</linearGradient>
		<path class="st12" d="M191.2,202.2c-1.3,20.7-17,36.5-35,35.4c-18-1.2-31.5-18.9-30.1-39.6s17-36.5,35-35.4
			S192.6,181.5,191.2,202.2z"/>
	</g>
	<path class="st13" d="M85.5,118.2c-1.2,0.7-15.3,9.5-16,26c-0.5,11,5.3,18.7,7,20.9c3.3,0.7,6.6,1.4,10,2.1c-2.3-5.7-4.7-11.3-7-17
		c0-7.3,0-14.7,0-22C81.5,124.9,83.5,121.5,85.5,118.2z"/>
	<path class="st13" d="M98.5,225.7c-1,5.1,8.5,11.7,17,13.5c5,1,14,1.2,16-3c2.1-4.5-4.2-13.2-12-16
		C110.9,217,99.5,220.7,98.5,225.7z"/>
	<g>
		
			<linearGradient id="SVGID_9_" gradientUnits="userSpaceOnUse" x1="-246.676" y1="21.0935" x2="-272.1838" y2="-41.7689" gradientTransform="matrix(0.6935 -0.7205 -0.7205 -0.6935 267.4665 -84.8387)">
			<stop  offset="0.1333" style="stop-color:#D3D5F2"/>
			<stop  offset="0.9718" style="stop-color:#00307C"/>
		</linearGradient>
		<path class="st14" d="M142,135.4c5.8,19.9-3.6,40.1-20.9,45.1s-36-7.1-41.7-27s3.6-40.1,20.9-45.1S136.2,115.5,142,135.4z"/>
	</g>
	<path class="st0" d="M86.6,167.7c0,0-5.1,16.5-2.1,22.5s10,21.9,10,21.9c0.9-1.4,9.8-15,4-29.9C95.3,174,89.3,169.5,86.6,167.7z"/>
	<g>
		
			<linearGradient id="SVGID_10_" gradientUnits="userSpaceOnUse" x1="40.1361" y1="421.0208" x2="79.4416" y2="363.9509" gradientTransform="matrix(1 0 0 -1 0 570)">
			<stop  offset="0" style="stop-color:#D3D5F2"/>
			<stop  offset="0.8692" style="stop-color:#00307C"/>
		</linearGradient>
		<path class="st15" d="M99,177.1c13,16.1,12.2,38.4-1.8,49.7s-35.9,7.4-49-8.8S36,179.6,50,168.3S86,161,99,177.1z"/>
	</g>
	<path class="st0" d="M87.1,189.2l-3.7,14c-0.1,0.5,0,1,0.3,1.5l14.2,19.2c1.2,1.6,3.6,0.3,3-1.5l-10.6-33.2
		C89.9,187.5,87.5,187.5,87.1,189.2z"/>
	<g>
		
			<linearGradient id="SVGID_11_" gradientUnits="userSpaceOnUse" x1="143.0255" y1="472.9584" x2="145.1129" y2="417.9105" gradientTransform="matrix(1 0 0 -1 0 570)">
			<stop  offset="0" style="stop-color:#FCFCDB"/>
			<stop  offset="0.4231" style="stop-color:#F7F895"/>
		</linearGradient>
		<path class="st16" d="M171.6,124.4c-0.4,17.5-13,31.4-28.3,31.1c-15.2-0.3-27.2-14.8-26.8-32.3c0.4-17.5,13-31.4,28.3-31.1
			S172,106.9,171.6,124.4z"/>
	</g>
	<g>
		
			<linearGradient id="SVGID_12_" gradientUnits="userSpaceOnUse" x1="115.827" y1="429.7973" x2="123.2593" y2="358.7339" gradientTransform="matrix(1 0 0 -1 0 570)">
			<stop  offset="0" style="stop-color:#9D99E3"/>
			<stop  offset="0.5513" style="stop-color:#4554CF"/>
		</linearGradient>
		<path class="st17" d="M156.1,185.3c2.7,22.5-10.7,42.6-30.1,44.9c-19.4,2.4-37.3-13.9-40.1-36.4s10.7-42.6,30.1-44.9
			c5.5-0.7,10.9,0.2,15.9,2.2c0.9,0.4,1.7,0.8,2.6,1.2C145.7,158.1,154.2,170.3,156.1,185.3z"/>
	</g>
	<path class="st10" d="M131.8,152.2c1.5-1.2,16.3,9.4,21.7,25c5,14.3,0.7,29-1,29s1.9-14.4-7-28c-2.1-3.3-8.3-11.6-13-23
		C131.9,153.6,131.4,152.5,131.8,152.2z"/>
	<path class="st10" d="M133.5,80.2"/>
	<line class="st18" x1="100.5" y1="271.2" x2="114.5" y2="347.2"/>
	<path class="st5" d="M127.5,286.2c-3.4,11.8-2.8,20.6-1.5,26.5c0.8,3.5,1.4,4.3,2,8c2,11.4-1.1,20.7-2,24c-2.2,7.9-3,20.8,4,42"/>
	<path class="st5" d="M68.2,231.7c2.9,7.8,7.9,19.6,15.8,33.3c5.2,9.1,9.6,15.3,11.2,17.5c7.9,11.5,18.1,32.3,27.1,73"/>
	<g>
		
			<linearGradient id="SVGID_13_" gradientUnits="userSpaceOnUse" x1="157.2756" y1="298.9453" x2="158.0825" y2="294.596" gradientTransform="matrix(1 0 0 -1 0 570)">
			<stop  offset="0" style="stop-color:#9D99E3"/>
			<stop  offset="0.5513" style="stop-color:#00307C"/>
		</linearGradient>
		<polygon class="st19" points="158.2,277.6 161.5,277.6 159.9,273.2 158.2,273.2 155.5,277.6 		"/>
	</g>
	<g>
		
			<linearGradient id="SVGID_14_" gradientUnits="userSpaceOnUse" x1="126.2756" y1="289.9453" x2="127.0825" y2="285.596" gradientTransform="matrix(1 0 0 -1 0 570)">
			<stop  offset="0" style="stop-color:#9D99E3"/>
			<stop  offset="0.5513" style="stop-color:#4554CF"/>
		</linearGradient>
		<polygon class="st20" points="127.2,286.6 130.5,286.6 128.9,282.2 127.2,282.2 124.5,286.6 		"/>
	</g>
	<g>
		
			<linearGradient id="SVGID_15_" gradientUnits="userSpaceOnUse" x1="98.9901" y1="302.5901" x2="99.6624" y2="298.9657" gradientTransform="matrix(1 0 0 -1 0 570)">
			<stop  offset="0.1333" style="stop-color:#FCFCDB"/>
			<stop  offset="0.9718" style="stop-color:#F7F895"/>
		</linearGradient>
		<polygon class="st21" points="99.8,272.8 102.5,272.8 101.1,269.2 99.8,269.2 97.5,272.8 		"/>
	</g>
	<path class="st5" d="M99.5,273.2c-0.3,9.5,0.3,23.2,5.5,38.5c2.8,8.2,5.7,13.4,8,18c5.9,11.6,12.8,29.1,17,54"/>
	<path class="st5" d="M132,386.7c10.1-37.5,11.1-57.5,10-69c-0.2-2.3-1-9,0-18c1.3-11.8,5.1-21.1,8-27"/>
	
		<linearGradient id="SVGID_16_" gradientUnits="userSpaceOnUse" x1="325.65" y1="85.1423" x2="325.65" y2="77.7423" gradientTransform="matrix(1 0 0 -1 0 570)">
		<stop  offset="0.1333" style="stop-color:#D3D5F2"/>
		<stop  offset="0.9718" style="stop-color:#2A73FF"/>
	</linearGradient>
	<path class="st22" d="M326.7,492.1c-0.8-2.4-1.5-4.9-2.1-7.4C325.5,487.1,326.2,489.6,326.7,492.1z"/>
	
		<linearGradient id="SVGID_17_" gradientUnits="userSpaceOnUse" x1="325.65" y1="85.1423" x2="325.65" y2="77.7423" gradientTransform="matrix(1 0 0 -1 0 570)">
		<stop  offset="0.1333" style="stop-color:#D3D5F2"/>
		<stop  offset="0.9718" style="stop-color:#2A73FF"/>
	</linearGradient>
	<path class="st23" d="M326.7,492.1c-0.8-2.4-1.5-4.9-2.1-7.4C325.5,487.1,326.2,489.6,326.7,492.1z"/>
	
		<linearGradient id="SVGID_18_" gradientUnits="userSpaceOnUse" x1="325.65" y1="85.1423" x2="325.65" y2="77.7423" gradientTransform="matrix(1 0 0 -1 0 570)">
		<stop  offset="0.1333" style="stop-color:#D3D5F2"/>
		<stop  offset="0.9718" style="stop-color:#2A73FF"/>
	</linearGradient>
	<path class="st24" d="M324.6,484.7c0.8,2.4,1.5,4.9,2.1,7.4C325.9,489.7,325.2,487.2,324.6,484.7z"/>
	<ellipse transform="matrix(0.9926 -0.1213 0.1213 0.9926 -35.0289 56.555)" class="st25" cx="447" cy="316" rx="6" ry="9"/>
	<path class="st5" d="M484,266c2.2,7.4,5.1,19.2,6.7,33.8c1.1,9.8,1.1,16.9,1.1,19.3c0.3,13,4.1,34.3,20.8,69.8"/>
	<path class="st5" d="M521,281c3.6,13.3,2.1,22.9,0,29.3c-1.3,3.8-2.2,4.7-3.3,8.7c-3.5,12.4-0.1,22.9,0.8,26.6
		c2.3,8.9,2.4,23.2-8.5,46"/>
	<path class="st5" d="M586.7,244.7c-3.7,7.5-9.9,19-19.4,32c-6.3,8.7-11.5,14.5-13.3,16.6c-9.4,10.9-21.8,30.8-34,70.6"/>
	<path class="st5" d="M558.2,270.7c-0.4,10.3-2.2,25-9.8,41.1c-4,8.6-8,14-11.2,18.9c-8.1,12.2-18,30.5-25.1,57"/>
	<path class="st5" d="M506.9,391.4c-9.3-41.1-9-62.8-6.7-75.1c0.5-2.4,2-9.7,1.4-19.4c-0.7-12.8-4.6-23.1-7.6-29.7"/>
	<g>
		
			<linearGradient id="SVGID_19_" gradientUnits="userSpaceOnUse" x1="243.0143" y1="550.9772" x2="248.1375" y2="487.752" gradientTransform="matrix(1 0 0 -1 0 570)">
			<stop  offset="0" style="stop-color:#9D99E3"/>
			<stop  offset="0.7359" style="stop-color:#4554CF"/>
		</linearGradient>
		<path class="st26" d="M278,47.6c2.5,20.6-9.9,39.1-27.8,41.2c-17.9,2.2-34.4-12.7-36.9-33.3s9.9-39.1,27.8-41.2S275.5,27,278,47.6
			z"/>
	</g>
	<g>
		
			<linearGradient id="SVGID_20_" gradientUnits="userSpaceOnUse" x1="183.6201" y1="474.5952" x2="216.1394" y2="417.8687" gradientTransform="matrix(1 0 0 -1 0 570)">
			<stop  offset="0" style="stop-color:#9D99E3"/>
			<stop  offset="0.7359" style="stop-color:#4554CF"/>
		</linearGradient>
		<path class="st27" d="M232.4,120.1c2.5,20.6-9.9,39.1-27.8,41.2c-17.9,2.2-34.4-12.7-36.9-33.3s9.9-39.1,27.8-41.2
			C213.3,84.6,229.9,99.5,232.4,120.1z"/>
	</g>
	<path class="st5" d="M305.8,213.7c-2.4,6.8-5.7,17.6-8,31.2c-1.6,9.1-2.1,15.7-2.3,18c-1.1,12.1-5.9,31.8-22.6,64.1"/>
	<g>
		
			<linearGradient id="SVGID_21_" gradientUnits="userSpaceOnUse" x1="265.4579" y1="383.788" x2="293.5693" y2="342.7668" gradientTransform="matrix(1 0 0 -1 0 570)">
			<stop  offset="0" style="stop-color:#9D99E3"/>
			<stop  offset="0.5513" style="stop-color:#4554CF"/>
		</linearGradient>
		<path class="st28" d="M298.2,199.4c-1,15.8-13,27.8-26.6,27c-13.7-0.9-24-14.4-22.9-30.2c1-15.8,13-27.8,26.6-27
			C288.9,170.1,299.2,183.7,298.2,199.4z"/>
	</g>
	<g>
		
			<linearGradient id="SVGID_22_" gradientUnits="userSpaceOnUse" x1="184.6908" y1="517.4547" x2="222.2383" y2="467.4063" gradientTransform="matrix(1 0 0 -1 0 570)">
			<stop  offset="0" style="stop-color:#FCFCDB"/>
			<stop  offset="0.5308" style="stop-color:#F7F895"/>
		</linearGradient>
		<path class="st29" d="M238.2,69.9c10.4,18,6.1,39.8-9.5,48.8s-36.7,1.7-47-16.2c-10.4-18-6.1-39.8,9.5-48.8S227.8,52,238.2,69.9z"
			/>
	</g>
	<g>
		
			<linearGradient id="SVGID_23_" gradientUnits="userSpaceOnUse" x1="310.9019" y1="407.1267" x2="298.4032" y2="358.3168" gradientTransform="matrix(1 0 0 -1 0 570)">
			<stop  offset="0" style="stop-color:#9D99E3"/>
			<stop  offset="0.5513" style="stop-color:#00307C"/>
		</linearGradient>
		<path class="st30" d="M329.2,185.8c1.9,15.9-7.7,30.1-21.4,31.8c-13.8,1.7-26.5-9.8-28.5-25.7c-1.9-15.9,7.7-30.1,21.4-31.8
			C314.6,158.5,327.3,170,329.2,185.8z"/>
	</g>
	<g>
		
			<linearGradient id="SVGID_24_" gradientUnits="userSpaceOnUse" x1="342.5842" y1="452.8269" x2="301.6757" y2="401.8181" gradientTransform="matrix(1 0 0 -1 0 570)">
			<stop  offset="0" style="stop-color:#9D99E3"/>
			<stop  offset="0.7359" style="stop-color:#4554CF"/>
		</linearGradient>
		<path class="st31" d="M353.7,139.7c2.5,20.6-9.9,39.1-27.8,41.2c-17.9,2.2-34.4-12.7-36.9-33.3s9.9-39.1,27.8-41.2
			C334.6,104.2,351.2,119.1,353.7,139.7z"/>
	</g>
	<path class="st10" d="M275.6,39.3c-2.7,0.9-6.7,2.5-10.6,5.7c-2,1.6-5.2,4.3-4.7,5.8c0.4,1.2,3.3,1.9,13.7,0.2"/>
	<g>
		
			<linearGradient id="SVGID_25_" gradientUnits="userSpaceOnUse" x1="233.4871" y1="490.4146" x2="274.0017" y2="446.5151" gradientTransform="matrix(0.9968 8.030769e-02 8.030769e-02 -0.9968 -45.3068 621.2147)">
			<stop  offset="0.1333" style="stop-color:#FCFCDB"/>
			<stop  offset="0.9718" style="stop-color:#F7F895"/>
		</linearGradient>
		<path class="st32" d="M277.4,172.2c4.5,18.2-4.7,36-20.5,39.9s-32.2-7.7-36.6-25.9c-4.5-18.2,4.7-36,20.5-39.9
			S273,154.1,277.4,172.2z"/>
	</g>
	<g>
		
			<linearGradient id="SVGID_26_" gradientUnits="userSpaceOnUse" x1="316.9055" y1="445.6175" x2="279.9229" y2="391.8366" gradientTransform="matrix(1 0 0 -1 0 570)">
			<stop  offset="0.1333" style="stop-color:#FCFCDB"/>
			<stop  offset="0.4026" style="stop-color:#F7F895"/>
		</linearGradient>
		<path class="st33" d="M336.7,145c-1.3,20.7-17,36.5-35,35.4c-18-1.2-31.5-18.9-30.1-39.6s17-36.5,35-35.4
			C324.6,106.6,338.1,124.3,336.7,145z"/>
	</g>
	<path class="st13" d="M231,61c-1.2,0.7-15.3,9.5-16,26c-0.5,11,5.3,18.7,7,20.9c3.3,0.7,6.6,1.4,10,2.1c-2.3-5.7-4.7-11.3-7-17
		c0-7.3,0-14.7,0-22C227,67.7,229,64.3,231,61z"/>
	<path class="st13" d="M244,168.5c-1,5.1,8.5,11.7,17,13.5c5,1,14,1.2,16-3c2.1-4.5-4.2-13.2-12-16C256.4,159.8,245,163.5,244,168.5
		z"/>
	<g>
		
			<linearGradient id="SVGID_27_" gradientUnits="userSpaceOnUse" x1="-104.564" y1="-44.0813" x2="-130.0719" y2="-106.9437" gradientTransform="matrix(0.6935 -0.7205 -0.7205 -0.6935 267.4665 -84.8387)">
			<stop  offset="0.1333" style="stop-color:#D3D5F2"/>
			<stop  offset="0.9718" style="stop-color:#00307C"/>
		</linearGradient>
		<path class="st34" d="M287.5,78.2c5.8,19.9-3.6,40.1-20.9,45.1c-17.3,5-36-7.1-41.7-27c-5.8-19.9,3.6-40.1,20.9-45.1
			S281.7,58.3,287.5,78.2z"/>
	</g>
	<path class="st0" d="M232.1,110.5c0,0-5.1,16.5-2.1,22.5s10,21.9,10,21.9c0.9-1.4,9.8-15,4-29.9
		C240.8,116.8,234.8,112.3,232.1,110.5z"/>
	<g>
		
			<linearGradient id="SVGID_28_" gradientUnits="userSpaceOnUse" x1="185.6463" y1="478.22" x2="224.9518" y2="421.1501" gradientTransform="matrix(1 0 0 -1 0 570)">
			<stop  offset="0" style="stop-color:#D3D5F2"/>
			<stop  offset="0.8692" style="stop-color:#00307C"/>
		</linearGradient>
		<path class="st35" d="M244.5,119.9c13,16.1,12.2,38.4-1.8,49.7c-14,11.3-35.9,7.4-49-8.8s-12.2-38.4,1.8-49.7
			C209.6,99.9,231.5,103.8,244.5,119.9z"/>
	</g>
	<path class="st0" d="M232.6,132l-3.7,14c-0.1,0.5,0,1,0.3,1.5l14.2,19.2c1.2,1.6,3.6,0.3,3-1.5L235.8,132
		C235.4,130.3,233,130.3,232.6,132z"/>
	<g>
		
			<linearGradient id="SVGID_29_" gradientUnits="userSpaceOnUse" x1="288.5356" y1="530.1577" x2="290.623" y2="475.1097" gradientTransform="matrix(1 0 0 -1 0 570)">
			<stop  offset="0" style="stop-color:#FCFCDB"/>
			<stop  offset="0.4231" style="stop-color:#F7F895"/>
		</linearGradient>
		<path class="st36" d="M317.1,67.2c-0.4,17.5-13,31.4-28.3,31.1C273.6,98,261.6,83.5,262,66s13-31.4,28.3-31.1
			S317.5,49.7,317.1,67.2z"/>
	</g>
	<g>
		
			<linearGradient id="SVGID_30_" gradientUnits="userSpaceOnUse" x1="261.339" y1="486.9967" x2="268.7713" y2="415.9333" gradientTransform="matrix(1 0 0 -1 0 570)">
			<stop  offset="0" style="stop-color:#9D99E3"/>
			<stop  offset="0.5513" style="stop-color:#4554CF"/>
		</linearGradient>
		<path class="st37" d="M301.6,128.1c2.7,22.5-10.7,42.6-30.1,44.9c-19.4,2.4-37.3-13.9-40.1-36.4c-2.7-22.5,10.7-42.6,30.1-44.9
			c5.5-0.7,10.9,0.2,15.9,2.2c0.9,0.4,1.7,0.8,2.6,1.2C291.2,100.9,299.7,113.1,301.6,128.1z"/>
	</g>
	<path class="st10" d="M277.3,95c1.5-1.2,16.3,9.4,21.7,25c5,14.3,0.7,29-1,29s1.9-14.4-7-28c-2.1-3.3-8.3-11.6-13-23
		C277.4,96.4,276.9,95.3,277.3,95z"/>
	<g>
		
			<linearGradient id="SVGID_31_" gradientUnits="userSpaceOnUse" x1="117.4898" y1="79.3901" x2="91.982" y2="16.5277" gradientTransform="matrix(0.8425 -0.5387 -0.5387 -0.8425 246.6742 158.2126)">
			<stop  offset="0.1333" style="stop-color:#D3D5F2"/>
			<stop  offset="0.9718" style="stop-color:#00307C"/>
		</linearGradient>
		<path class="st38" d="M348.7,97.8c0.9,20.7-12.9,38.2-30.9,39s-33.3-15.3-34.3-36s12.9-38.2,30.9-39S347.8,77.1,348.7,97.8z"/>
	</g>
	<path class="st10" d="M279,23"/>
	<line class="st18" x1="246" y1="214" x2="260" y2="290"/>
	<path class="st5" d="M273,229c-3.4,11.8-2.8,20.6-1.5,26.5c0.8,3.5,1.4,4.3,2,8c2,11.4-1.1,20.7-2,24c-2.2,7.9-3,20.8,4,42"/>
	<path class="st5" d="M221.3,189.9c2.5,6.8,6.8,17.2,13.6,29.2c4.5,8,8.3,13.4,9.6,15.3c6.8,10.1,15.6,28.3,23.3,63.9"/>
	<line class="st18" x1="258.1" y1="282.4" x2="258.9" y2="281.6"/>
	<g>
		
			<linearGradient id="SVGID_32_" gradientUnits="userSpaceOnUse" x1="302.7859" y1="356.1445" x2="303.5927" y2="351.7953" gradientTransform="matrix(1 0 0 -1 0 570)">
			<stop  offset="0" style="stop-color:#9D99E3"/>
			<stop  offset="0.5513" style="stop-color:#00307C"/>
		</linearGradient>
		<polygon class="st39" points="303.7,220.4 307,220.4 305.4,216 303.7,216 301,220.4 		"/>
	</g>
	<g>
		
			<linearGradient id="SVGID_33_" gradientUnits="userSpaceOnUse" x1="271.7859" y1="347.1445" x2="272.5927" y2="342.7953" gradientTransform="matrix(1 0 0 -1 0 570)">
			<stop  offset="0" style="stop-color:#9D99E3"/>
			<stop  offset="0.5513" style="stop-color:#4554CF"/>
		</linearGradient>
		<polygon class="st40" points="272.7,229.4 276,229.4 274.4,225 272.7,225 270,229.4 		"/>
	</g>
	<g>
		
			<linearGradient id="SVGID_34_" gradientUnits="userSpaceOnUse" x1="244.5003" y1="359.7893" x2="245.1726" y2="356.1649" gradientTransform="matrix(1 0 0 -1 0 570)">
			<stop  offset="0.1333" style="stop-color:#FCFCDB"/>
			<stop  offset="0.9718" style="stop-color:#F7F895"/>
		</linearGradient>
		<polygon class="st41" points="245.3,215.6 248,215.6 246.6,212 245.3,212 243,215.6 		"/>
	</g>
	<path class="st5" d="M245,216c-0.3,9.5,0.3,23.2,5.5,38.5c2.8,8.2,5.7,13.4,8,18c5.9,11.6,12.8,29.1,17,54"/>
	<path class="st5" d="M295.5,215.5c-2.9,5.9-6.7,15.2-8,27c-1,9-0.2,15.7,0,18c1.1,11.5,0.1,31.5-10,69"/>
	<g>
		
			<linearGradient id="SVGID_35_" gradientUnits="userSpaceOnUse" x1="-852.1187" y1="552.9429" x2="-848.0632" y2="502.8941" gradientTransform="matrix(-1.6979 -8.855769e-02 0.1106 -1.3598 -931.1484 734.9162)">
			<stop  offset="0" style="stop-color:#9D99E3"/>
			<stop  offset="0.7359" style="stop-color:#4554CF"/>
		</linearGradient>
		<path class="st42" d="M531.2,86.7c-4.7,22,9,42.8,30.7,46.4s43.1-11.3,47.8-33.4c4.7-22-9-42.8-30.7-46.4S535.9,64.7,531.2,86.7z"
			/>
	</g>
	<g>
		
			<linearGradient id="SVGID_36_" gradientUnits="userSpaceOnUse" x1="-895.9614" y1="491.6794" x2="-870.7753" y2="447.7448" gradientTransform="matrix(-1.6979 -8.855769e-02 0.1106 -1.3598 -931.1484 734.9162)">
			<stop  offset="0" style="stop-color:#9D99E3"/>
			<stop  offset="0.7359" style="stop-color:#4554CF"/>
		</linearGradient>
		<path class="st43" d="M581.2,168.2c-4.7,22,9,42.8,30.7,46.4s43.1-11.3,47.8-33.4c4.7-22-9-42.8-30.7-46.4
			S585.9,146.1,581.2,168.2z"/>
	</g>
	<g>
		
			<linearGradient id="SVGID_37_" gradientUnits="userSpaceOnUse" x1="-836.8777" y1="420.2987" x2="-815.2117" y2="388.6829" gradientTransform="matrix(-1.6979 -8.855769e-02 0.1106 -1.3598 -931.1484 734.9162)">
			<stop  offset="0" style="stop-color:#9D99E3"/>
			<stop  offset="0.5513" style="stop-color:#4554CF"/>
		</linearGradient>
		<ellipse class="st44" cx="524.9" cy="249.1" rx="30.4" ry="30.9"/>
	</g>
	<g>
		
			<linearGradient id="SVGID_38_" gradientUnits="userSpaceOnUse" x1="-895.2445" y1="525.2389" x2="-866.5643" y2="487.0099" gradientTransform="matrix(-1.6979 -8.855769e-02 0.1106 -1.3598 -931.1484 734.9162)">
			<stop  offset="0" style="stop-color:#FCFCDB"/>
			<stop  offset="0.5308" style="stop-color:#F7F895"/>
		</linearGradient>
		<path class="st45" d="M578.1,113.7c-14.1,18.6-10.7,42.5,7.7,53.3c18.3,10.8,44.7,4.5,58.8-14.2c14.1-18.6,10.7-42.5-7.7-53.3
			C618.6,88.7,592.3,95,578.1,113.7z"/>
	</g>
	<g>
		
			<linearGradient id="SVGID_39_" gradientUnits="userSpaceOnUse" x1="-803.1954" y1="439.1711" x2="-813.0934" y2="400.5173" gradientTransform="matrix(-1.6979 -8.855769e-02 0.1106 -1.3598 -931.1484 734.9162)">
			<stop  offset="0" style="stop-color:#9D99E3"/>
			<stop  offset="0.5513" style="stop-color:#00307C"/>
		</linearGradient>
		<path class="st46" d="M457.6,232.3c-3.6,17,7,33,23.7,35.8c16.7,2.8,33.2-8.7,36.8-25.7s-7-33-23.7-35.8S461.2,215.3,457.6,232.3z
			"/>
	</g>
	<g>
		
			<linearGradient id="SVGID_40_" gradientUnits="userSpaceOnUse" x1="-779.5539" y1="475.0717" x2="-811.246" y2="435.555" gradientTransform="matrix(-1.6979 -8.855769e-02 0.1106 -1.3598 -931.1484 734.9162)">
			<stop  offset="0" style="stop-color:#9D99E3"/>
			<stop  offset="0.7359" style="stop-color:#4554CF"/>
		</linearGradient>
		<path class="st47" d="M431.4,180.8c-4.7,22,9,42.8,30.7,46.4s43.1-11.3,47.8-33.4s-9-42.8-30.7-46.4S436.1,158.7,431.4,180.8z"/>
	</g>
	<path class="st10" d="M534.8,78c3.3,1.1,8,3.2,12.6,6.9c2.3,1.9,6.1,5,5.2,6.6c-0.6,1.2-4.2,1.9-16.7-0.8"/>
	<g>
		
			<linearGradient id="SVGID_41_" gradientUnits="userSpaceOnUse" x1="-798.4143" y1="469.446" x2="-827.1987" y2="427.5871" gradientTransform="matrix(-1.6979 -8.855769e-02 0.1106 -1.3598 -931.1484 734.9162)">
			<stop  offset="0.1333" style="stop-color:#FCFCDB"/>
			<stop  offset="0.4026" style="stop-color:#F7F895"/>
		</linearGradient>
		<ellipse class="st48" cx="491.6" cy="187.7" rx="39.9" ry="40.6"/>
	</g>
	<path class="st13" d="M587.6,104.5c1.4,0.9,17.9,11.4,17.5,29.2c-0.3,11.9-8,19.8-10.3,22.1c-4.1,0.5-8.2,1-12.3,1.5
		c3.3-5.9,6.6-11.9,9.9-17.8c0.6-7.9,1.2-15.8,1.8-23.7C592,112,589.8,108.3,587.6,104.5z"/>
	<g>
		
			<linearGradient id="SVGID_42_" gradientUnits="userSpaceOnUse" x1="-857.2455" y1="431.2591" x2="-826.2584" y2="397.6832" gradientTransform="matrix(-1.7013 2.092759e-02 -2.613113e-02 -1.3625 -859.8532 808.5286)">
			<stop  offset="0.1333" style="stop-color:#FCFCDB"/>
			<stop  offset="0.9718" style="stop-color:#F7F895"/>
		</linearGradient>
		<path class="st49" d="M522,221.2c-6.9,19.3,2.9,39.2,21.8,44.4c19,5.3,39.9-6.1,46.8-25.3s-2.9-39.2-21.8-44.4
			C549.8,190.6,528.9,202,522,221.2z"/>
	</g>
	<path class="st13" d="M563.1,219.6c0.8,5.6-11.3,12.1-21.8,13.3c-6.2,0.8-17.2,0.4-19.3-4.4c-2.2-5.1,6.2-13.9,15.9-16.4
		C548.7,209.4,562.3,214.1,563.1,219.6z"/>
	<g>
		
			<linearGradient id="SVGID_43_" gradientUnits="userSpaceOnUse" x1="-860.959" y1="743.9896" x2="-880.8233" y2="695.0353" gradientTransform="matrix(-1.0977 -1.0411 1.3 -0.8791 -1312.8011 -179.2714)">
			<stop  offset="0.1333" style="stop-color:#D3D5F2"/>
			<stop  offset="0.9718" style="stop-color:#00307C"/>
		</linearGradient>
		<path class="st50" d="M517.2,119.1c-8.6,21.1,1.2,43.5,22,50.1s44.6-5.1,53.2-26.2s-1.2-43.5-22-50.1
			C549.6,86.3,525.8,98,517.2,119.1z"/>
	</g>
	<path class="st0" d="M582.3,157.9c0,0,4.9,18.1,0.8,24.4c-4.1,6.3-13.9,22.9-13.9,22.9c-1-1.6-10.8-16.9-2.6-32.5
		C571.2,164.1,578.9,159.6,582.3,157.9z"/>
	<g>
		
			<linearGradient id="SVGID_44_" gradientUnits="userSpaceOnUse" x1="-895.1682" y1="493.8341" x2="-865.0968" y2="450.1717" gradientTransform="matrix(-1.6979 -8.855769e-02 0.1106 -1.3598 -931.1484 734.9162)">
			<stop  offset="0" style="stop-color:#D3D5F2"/>
			<stop  offset="0.8692" style="stop-color:#00307C"/>
		</linearGradient>
		<path class="st51" d="M566.4,167.1c-17.2,16.5-18,40.6-1.8,53.7c16.2,13.2,43.3,10.5,60.6-6c17.2-16.5,18-40.6,1.8-53.7
			C610.7,148,583.6,150.6,566.4,167.1z"/>
	</g>
	<path class="st0" d="M580,181l3.4,15.4c0.1,0.6,0,1.1-0.5,1.6L564,217.6c-1.5,1.6-4.4,0.1-3.6-1.9l15.6-35.1
		C576.7,178.9,579.6,179.2,580,181z"/>
	<g>
		
			<linearGradient id="SVGID_45_" gradientUnits="userSpaceOnUse" x1="-819.3312" y1="536.6745" x2="-817.6769" y2="493.0464" gradientTransform="matrix(-1.6979 -8.855769e-02 0.1106 -1.3598 -931.1484 734.9162)">
			<stop  offset="0" style="stop-color:#FCFCDB"/>
			<stop  offset="0.4231" style="stop-color:#F7F895"/>
		</linearGradient>
		<path class="st52" d="M481.9,105.2c-0.9,18.9,13.4,34.8,32.1,35.5c18.6,0.7,34.4-14.1,35.4-33c0.9-18.9-13.4-34.8-32.1-35.5
			C498.6,71.5,482.8,86.2,481.9,105.2z"/>
	</g>
	<g>
		
			<linearGradient id="SVGID_46_" gradientUnits="userSpaceOnUse" x1="-839.5062" y1="502.2663" x2="-833.6262" y2="446.0459" gradientTransform="matrix(-1.6979 -8.855769e-02 0.1106 -1.3598 -931.1484 734.9162)">
			<stop  offset="0" style="stop-color:#9D99E3"/>
			<stop  offset="0.5513" style="stop-color:#4554CF"/>
		</linearGradient>
		<path class="st53" d="M496,171.9c-5.1,24,9.7,46.7,33.2,50.6c23.5,3.9,46.7-12.4,51.9-36.4s-9.7-46.7-33.2-50.6
			c-6.7-1.1-13.4-0.6-19.6,1.3c-1.1,0.3-2.2,0.7-3.3,1.1C510.8,143.4,499.4,155.9,496,171.9z"/>
	</g>
	<path class="st10" d="M528.3,138c-1.8-1.4-20.6,9-28.5,25.4c-7.2,15.1-3.2,31.2-1.1,31.3s-1.1-15.7,10.8-29.7
		c2.9-3.4,11.1-11.9,17.7-23.9C528.1,139.5,528.7,138.3,528.3,138z"/>
	<g>
		
			<linearGradient id="SVGID_47_" gradientUnits="userSpaceOnUse" x1="-817.9216" y1="682.2168" x2="-838.0594" y2="632.5885" gradientTransform="matrix(-1.3709 -0.8071 1.0078 -1.0979 -1304.4116 153.1224)">
			<stop  offset="0.1333" style="stop-color:#D3D5F2"/>
			<stop  offset="0.9718" style="stop-color:#00307C"/>
		</linearGradient>
		<path class="st54" d="M440.8,135.9c-2.8,22.3,12.7,42.1,34.6,44.2c21.9,2.1,42-14.2,44.8-36.5s-12.7-42.1-34.6-44.2
			C463.6,97.3,443.6,113.7,440.8,135.9z"/>
	</g>
	<path class="st10" d="M532,60.2"/>
	<line class="st18" x1="557.1" y1="268.5" x2="533.9" y2="349.5"/>
	<line class="st18" x1="536.8" y1="341.4" x2="536" y2="340.6"/>
	<g>
		
			<linearGradient id="SVGID_48_" gradientUnits="userSpaceOnUse" x1="-809.7816" y1="398.7448" x2="-809.1522" y2="395.3518" gradientTransform="matrix(-1.6979 -8.855769e-02 0.1106 -1.3598 -931.1484 734.9162)">
			<stop  offset="0" style="stop-color:#9D99E3"/>
			<stop  offset="0.5513" style="stop-color:#00307C"/>
		</linearGradient>
		<polygon class="st55" points="486,271.3 482,271.1 484.4,266.5 486.4,266.6 489.4,271.5 		"/>
	</g>
	<g>
		
			<linearGradient id="SVGID_49_" gradientUnits="userSpaceOnUse" x1="-832.1396" y1="391.4638" x2="-831.5101" y2="388.071" gradientTransform="matrix(-1.6979 -8.855769e-02 0.1106 -1.3598 -931.1484 734.9162)">
			<stop  offset="0" style="stop-color:#9D99E3"/>
			<stop  offset="0.5513" style="stop-color:#4554CF"/>
		</linearGradient>
		<polygon class="st56" points="523.2,283.2 519.2,283 521.5,278.4 523.5,278.5 526.5,283.4 		"/>
	</g>
	<g>
		
			<linearGradient id="SVGID_50_" gradientUnits="userSpaceOnUse" x1="-851.7133" y1="401.365" x2="-851.1888" y2="398.5377" gradientTransform="matrix(-1.6979 -8.855769e-02 0.1106 -1.3598 -931.1484 734.9162)">
			<stop  offset="0.1333" style="stop-color:#FCFCDB"/>
			<stop  offset="0.9718" style="stop-color:#F7F895"/>
		</linearGradient>
		<polygon class="st57" points="557.9,270.3 554.5,270.1 556.5,266.3 558.1,266.4 560.6,270.5 		"/>
	</g>
	<g>
		
			<linearGradient id="SVGID_51_" gradientUnits="userSpaceOnUse" x1="-30.2373" y1="145.3643" x2="-55.7452" y2="82.502" gradientTransform="matrix(0.8425 -0.5387 -0.5387 -0.8425 246.6742 158.2126)">
			<stop  offset="0.1333" style="stop-color:#D3D5F2"/>
			<stop  offset="0.9718" style="stop-color:#00307C"/>
		</linearGradient>
		<path class="st58" d="M188.7,121.8c0.9,20.7-12.9,38.2-30.9,39s-33.3-15.3-34.3-36s12.9-38.2,30.9-39S187.8,101.1,188.7,121.8z"/>
	</g>
	<line class="st18" x1="98.1" y1="306.4" x2="98.9" y2="305.6"/>
	<path class="st59" d="M341.5,424.5"/>
	<g>
		<path class="st60" d="M356.5,445.5c19.8,30.2,39.7,60.3,59.5,90.5c33.7-53.7,67.3-107.3,101-161c-79-20.3-158-40.7-237-61
			c-27.7,34-55.3,68-83,102c-26.2-19.5-52.3-39-78.5-58.5L356.5,445.5z"/>
	</g>
	<g>
		
			<linearGradient id="SVGID_52_" gradientUnits="userSpaceOnUse" x1="416.5" y1="114" x2="521.5" y2="114" gradientTransform="matrix(1 0 0 -1 0 570)">
			<stop  offset="0.1333" style="stop-color:#FCFCDB"/>
			<stop  offset="0.9718" style="stop-color:#F7F895"/>
		</linearGradient>
		<polygon class="st61" points="521.5,384.5 416.5,536.5 517.5,375.5 		"/>
	</g>
	<g>
		
			<linearGradient id="SVGID_53_" gradientUnits="userSpaceOnUse" x1="338.4579" y1="256.788" x2="366.5693" y2="215.7668" gradientTransform="matrix(1 0 0 -1 0 570)">
			<stop  offset="0" style="stop-color:#9D99E3"/>
			<stop  offset="0.5513" style="stop-color:#4554CF"/>
		</linearGradient>
		<path class="st62" d="M371.2,326.4c-1,15.8-13,27.8-26.6,27c-13.7-0.9-24-14.4-22.9-30.2c1-15.8,13-27.8,26.6-27
			C361.9,297.1,372.2,310.7,371.2,326.4z"/>
	</g>
	<g>
		
			<linearGradient id="SVGID_54_" gradientUnits="userSpaceOnUse" x1="316.0143" y1="423.9773" x2="321.1375" y2="360.752" gradientTransform="matrix(1 0 0 -1 0 570)">
			<stop  offset="0" style="stop-color:#9D99E3"/>
			<stop  offset="0.7359" style="stop-color:#4554CF"/>
		</linearGradient>
		<path class="st63" d="M351,174.6c2.5,20.6-9.9,39.1-27.8,41.2c-17.9,2.2-34.4-12.7-36.9-33.3s9.9-39.1,27.8-41.2
			S348.5,154,351,174.6z"/>
	</g>
	<g>
		
			<linearGradient id="SVGID_55_" gradientUnits="userSpaceOnUse" x1="383.9019" y1="280.1267" x2="371.4032" y2="231.317" gradientTransform="matrix(1 0 0 -1 0 570)">
			<stop  offset="0" style="stop-color:#9D99E3"/>
			<stop  offset="0.5513" style="stop-color:#00307C"/>
		</linearGradient>
		<path class="st64" d="M402.2,312.8c1.9,15.9-7.7,30.1-21.4,31.8c-13.8,1.7-26.5-9.8-28.5-25.7c-1.9-15.9,7.7-30.1,21.4-31.8
			C387.6,285.5,400.3,297,402.2,312.8z"/>
	</g>
	<g>
		
			<linearGradient id="SVGID_56_" gradientUnits="userSpaceOnUse" x1="256.6201" y1="347.5952" x2="289.1393" y2="290.8688" gradientTransform="matrix(1 0 0 -1 0 570)">
			<stop  offset="0" style="stop-color:#9D99E3"/>
			<stop  offset="0.7359" style="stop-color:#4554CF"/>
		</linearGradient>
		<path class="st65" d="M305.4,247.1c2.5,20.6-9.9,39.1-27.8,41.2c-17.9,2.2-34.4-12.7-36.9-33.3s9.9-39.1,27.8-41.2
			C286.3,211.6,302.9,226.5,305.4,247.1z"/>
	</g>
	<g>
		
			<linearGradient id="SVGID_57_" gradientUnits="userSpaceOnUse" x1="257.6901" y1="390.4543" x2="295.2377" y2="340.4059" gradientTransform="matrix(1 0 0 -1 0 570)">
			<stop  offset="0" style="stop-color:#FCFCDB"/>
			<stop  offset="0.5308" style="stop-color:#F7F895"/>
		</linearGradient>
		<path class="st66" d="M311.2,196.9c10.4,18,6.1,39.8-9.5,48.8s-36.7,1.7-47-16.2c-10.4-18-6.1-39.8,9.5-48.8
			C279.7,171.7,300.8,179,311.2,196.9z"/>
	</g>
	<g>
		
			<linearGradient id="SVGID_58_" gradientUnits="userSpaceOnUse" x1="316.4463" y1="369.6835" x2="356.9609" y2="325.784" gradientTransform="matrix(0.9968 8.030769e-02 8.030769e-02 -0.9968 -45.3068 621.2147)">
			<stop  offset="0.1333" style="stop-color:#FCFCDB"/>
			<stop  offset="0.9718" style="stop-color:#F7F895"/>
		</linearGradient>
		<path class="st67" d="M350.4,299.2c4.5,18.2-4.7,36-20.5,39.9s-32.2-7.7-36.6-25.9c-4.5-18.2,4.7-36,20.5-39.9
			C329.6,269.5,346,281.1,350.4,299.2z"/>
	</g>
	<g>
		
			<linearGradient id="SVGID_59_" gradientUnits="userSpaceOnUse" x1="415.5842" y1="325.8269" x2="374.6757" y2="274.8181" gradientTransform="matrix(1 0 0 -1 0 570)">
			<stop  offset="0" style="stop-color:#9D99E3"/>
			<stop  offset="0.7359" style="stop-color:#4554CF"/>
		</linearGradient>
		<path class="st68" d="M426.7,266.7c2.5,20.6-9.9,39.1-27.8,41.2c-17.9,2.2-34.4-12.7-36.9-33.3s9.9-39.1,27.8-41.2
			C407.6,231.2,424.2,246.1,426.7,266.7z"/>
	</g>
	<path class="st10" d="M348.6,166.3c-2.7,0.9-6.7,2.5-10.6,5.7c-2,1.6-5.2,4.3-4.7,5.8c0.4,1.2,3.3,1.9,13.7,0.2"/>
	<g>
		
			<linearGradient id="SVGID_60_" gradientUnits="userSpaceOnUse" x1="389.9055" y1="318.6175" x2="352.9229" y2="264.8366" gradientTransform="matrix(1 0 0 -1 0 570)">
			<stop  offset="0.1333" style="stop-color:#FCFCDB"/>
			<stop  offset="0.4026" style="stop-color:#F7F895"/>
		</linearGradient>
		<path class="st69" d="M409.7,272c-1.3,20.7-17,36.5-35,35.4c-18-1.2-31.5-18.9-30.1-39.6s17-36.5,35-35.4
			C397.6,233.6,411.1,251.3,409.7,272z"/>
	</g>
	<path class="st13" d="M304,188c-1.2,0.7-15.3,9.5-16,26c-0.5,11,5.3,18.7,7,20.9c3.3,0.7,6.6,1.4,10,2.1c-2.3-5.7-4.7-11.3-7-17
		c0-7.3,0-14.7,0-22C300,194.7,302,191.3,304,188z"/>
	<line class="st5" x1="106.1" y1="269.9" x2="127.9" y2="364.5"/>
	<path class="st13" d="M317,295.5c-1,5.1,8.5,11.7,17,13.5c5,1,14,1.2,16-3c2.1-4.5-4.2-13.2-12-16C329.4,286.8,318,290.5,317,295.5
		z"/>
	<g>
		
			<linearGradient id="SVGID_61_" gradientUnits="userSpaceOnUse" x1="-145.4426" y1="-184.7477" x2="-170.9504" y2="-247.6101" gradientTransform="matrix(0.6935 -0.7205 -0.7205 -0.6935 267.4665 -84.8387)">
			<stop  offset="0.1333" style="stop-color:#D3D5F2"/>
			<stop  offset="0.9718" style="stop-color:#00307C"/>
		</linearGradient>
		<path class="st70" d="M360.5,205.2c5.8,19.9-3.6,40.1-20.9,45.1s-36-7.1-41.7-27c-5.8-19.9,3.6-40.1,20.9-45.1
			C336,173.2,354.7,185.3,360.5,205.2z"/>
	</g>
	<path class="st0" d="M305.1,237.5c0,0-5.1,16.5-2.1,22.5s10,21.9,10,21.9c0.9-1.4,9.8-15,4-29.9
		C313.8,243.8,307.8,239.3,305.1,237.5z"/>
	<g>
		
			<linearGradient id="SVGID_62_" gradientUnits="userSpaceOnUse" x1="258.6479" y1="351.2211" x2="297.9534" y2="294.1512" gradientTransform="matrix(1 0 0 -1 0 570)">
			<stop  offset="0" style="stop-color:#D3D5F2"/>
			<stop  offset="0.8692" style="stop-color:#00307C"/>
		</linearGradient>
		<path class="st71" d="M317.5,246.9c13,16.1,12.2,38.4-1.8,49.7c-14,11.3-35.9,7.4-49-8.8c-13-16.1-12.2-38.4,1.8-49.7
			C282.6,226.9,304.5,230.8,317.5,246.9z"/>
	</g>
	<path class="st0" d="M305.6,259l-3.7,14c-0.1,0.5,0,1,0.3,1.5l14.2,19.2c1.2,1.6,3.6,0.3,3-1.5L308.8,259
		C308.4,257.3,306,257.3,305.6,259z"/>
	<g>
		
			<linearGradient id="SVGID_63_" gradientUnits="userSpaceOnUse" x1="361.5354" y1="403.1576" x2="363.6228" y2="348.1097" gradientTransform="matrix(1 0 0 -1 0 570)">
			<stop  offset="0" style="stop-color:#FCFCDB"/>
			<stop  offset="0.4231" style="stop-color:#F7F895"/>
		</linearGradient>
		<path class="st72" d="M390.1,194.2c-0.4,17.5-13,31.4-28.3,31.1c-15.2-0.3-27.2-14.8-26.8-32.3s13-31.4,28.3-31.1
			C378.5,162.2,390.5,176.7,390.1,194.2z"/>
	</g>
	<g>
		
			<linearGradient id="SVGID_64_" gradientUnits="userSpaceOnUse" x1="334.3372" y1="359.9965" x2="341.7695" y2="288.9331" gradientTransform="matrix(1 0 0 -1 0 570)">
			<stop  offset="0" style="stop-color:#9D99E3"/>
			<stop  offset="0.5513" style="stop-color:#4554CF"/>
		</linearGradient>
		<path class="st73" d="M374.6,255.1c2.7,22.5-10.7,42.6-30.1,44.9s-37.3-13.9-40.1-36.4s10.7-42.6,30.1-44.9
			c5.5-0.7,10.9,0.2,15.9,2.2c0.9,0.4,1.7,0.8,2.6,1.2C364.2,227.9,372.7,240.1,374.6,255.1z"/>
	</g>
	<path class="st10" d="M350.3,222c1.5-1.2,16.3,9.4,21.7,25c5,14.3,0.7,29-1,29s1.9-14.4-7-28c-2.1-3.3-8.3-11.6-13-23
		C350.4,223.4,349.9,222.3,350.3,222z"/>
	<g>
		
			<linearGradient id="SVGID_65_" gradientUnits="userSpaceOnUse" x1="110.5772" y1="-66.933" x2="85.0695" y2="-129.7954" gradientTransform="matrix(0.8425 -0.5387 -0.5387 -0.8425 246.6742 158.2126)">
			<stop  offset="0.1333" style="stop-color:#D3D5F2"/>
			<stop  offset="0.9718" style="stop-color:#00307C"/>
		</linearGradient>
		<path class="st74" d="M421.7,224.8c0.9,20.7-12.9,38.2-30.9,39s-33.3-15.3-34.3-36s12.9-38.2,30.9-39
			C405.4,187.9,420.8,204.1,421.7,224.8z"/>
	</g>
	<path class="st0" d="M223,246"/>
	<path class="st10" d="M352,150"/>
	<line class="st18" x1="319" y1="341" x2="333" y2="417"/>
	<line class="st18" x1="331.1" y1="409.4" x2="331.9" y2="408.6"/>
	<g>
		
			<linearGradient id="SVGID_66_" gradientUnits="userSpaceOnUse" x1="344.7859" y1="220.1445" x2="345.5927" y2="215.7953" gradientTransform="matrix(1 0 0 -1 0 570)">
			<stop  offset="0" style="stop-color:#9D99E3"/>
			<stop  offset="0.5513" style="stop-color:#4554CF"/>
		</linearGradient>
		<polygon class="st75" points="345.7,356.4 349,356.4 347.4,352 345.7,352 343,356.4 		"/>
	</g>
	<g>
		<path class="st76" d="M421.5,551.6c-35.7-22.6-72.1-44-108.1-63.7c-18.7-10.2-33.5-17.9-46.6-24.6c-19.8-10.3-37-19.1-60.3-33
			c-31.6-18.8-62.2-39.3-91-61.2l237,90L421.5,551.6z"/>
		<g>
			<path class="st76" d="M118.6,370.9l73.6,28l160,60.7l67.2,90.2c-35-22.1-70.6-43-105.9-62.2c-18.7-10.2-33.5-17.9-46.6-24.6
				c-19.8-10.3-36.9-19.1-60.2-32.9C176.2,411.8,146.6,392,118.6,370.9 M112.5,367.5c19.9,15.2,51.9,38.4,93.8,63.3
				c38.8,23,60,32.1,106.9,57.6c25.9,14.1,64.2,35.8,110.4,65.1c-23.5-31.6-47.1-63.2-70.6-94.8
				C272.7,428.3,192.6,397.9,112.5,367.5L112.5,367.5z"/>
		</g>
	</g>
	<g>
		<path class="st77" d="M348,454c-39.1-15.2-78.1-30.5-117-46c-37.7-15-75.4-30.2-113-45.5c-0.8-1.6-0.6-3.6,0.5-5
			c1.1-1.3,2.8-1.9,4.5-1.5c77.3,30.3,154.7,60.7,232,91C352.7,449.3,350.3,451.7,348,454z"/>
	</g>
	<path class="st5" d="M348.5,456.5c-7-21.2-6.2-34.1-4-42c0.9-3.3,4-12.6,2-24c-0.6-3.7-1.2-4.5-2-8c-1.3-5.9-1.9-14.7,1.5-26.5"/>
	<path class="st5" d="M318.5,339.5c-0.3,9.5-0.2,22.7,5,38c2.8,8.2,5.7,13.4,8,18c5.9,11.6,12.8,29.1,17,54"/>
	<line class="st5" x1="348.5" y1="449.5" x2="325.5" y2="339.5"/>
	<line class="st5" x1="362.5" y1="346.5" x2="345.5" y2="449.5"/>
	<g>
		
			<linearGradient id="SVGID_67_" gradientUnits="userSpaceOnUse" x1="317.5004" y1="232.7893" x2="318.1726" y2="229.1649" gradientTransform="matrix(1 0 0 -1 0 570)">
			<stop  offset="0.1333" style="stop-color:#FCFCDB"/>
			<stop  offset="0.9718" style="stop-color:#F7F895"/>
		</linearGradient>
		<polygon class="st78" points="318.3,342.6 321,342.6 319.6,339 318.3,339 316,342.6 		"/>
	</g>
	<line class="st79" x1="482" y1="379" x2="404" y2="494"/>
	<line class="st79" x1="463" y1="375" x2="435" y2="417"/>
	<line class="st79" x1="443.5" y1="370.5" x2="399.5" y2="432.5"/>
	<line class="st79" x1="406.8" y1="361.1" x2="373.6" y2="406.1"/>
	<line class="st79" x1="425" y1="363.3" x2="372.5" y2="432.9"/>
	
		<ellipse transform="matrix(0.9354 -0.3536 0.3536 0.9354 -96.0729 180.8186)" class="st80" cx="446.8" cy="353.3" rx="8.7" ry="4.8"/>
	<path class="st76" d="M470,359.5c0,1.6-3.1,2.7-8,4.5c-3.2,1.2-7.8,2.8-13.5,3c-9.8,0.3-21.6-3.9-21.5-7.5c0.1-3.5,11.9-6.4,21-6.5
		C458.7,352.9,470,356.5,470,359.5z"/>
	<ellipse transform="matrix(0.9788 -0.2047 0.2047 0.9788 -65.4258 103.4914)" class="st76" cx="467.5" cy="368" rx="4.5" ry="2"/>
	<path class="st81" d="M467.3,367.2c0.1,0.6,0.4,2.1-0.4,2.9c-0.5,0.5-1.2,0.4-1.4,0.4c-1.7,0-3-2-3.5-2.8
		c-1.8-2.8-5.6-12.6-10-25.8c-4.5,7.9-4.3,12.3-3.1,15c0.5,1.1,1.6,2.6,1,4c-0.7,1.8-3.7,2.2-6.2,2.3l-8.9-1c-0.2,0-1.5,0-3.1-0.6
		c-0.6-0.2-3.4-1.2-4.9-3.8c-2.4-4.1,0.1-8.8,0.3-9.1c1.8-6.4,3.7-11.5,5.1-15c0,0,1-2.5,4.1-8c1.9-3.5,2.7-4.5,4-5
		c2-0.8,4.6-0.3,6,0c0.7,0.2,1.4,0.4,2.1,0.6c5.6,0.6,9.8,5,10.6,10.3c3.2,10.6,5.5,19.1,7.1,24.2
		C467,359.7,466.6,363.6,467.3,367.2z"/>
	<path class="st82" d="M488,317"/>
	<path class="st76" d="M438,314.1c0-0.1,0-0.2,0-0.3c0-0.8,0.4-5,4-5.9c3-0.7,9.3-3.2,12.3-4.3c0.8-0.3,1.7,0.3,1.7,1.2v0.5
		c0,0.4-0.2,0.8-0.6,1L453,308l0,0c1.1,0,1.7,1.3,0.9,2.1L452,312l-3.9,3.9c-0.1,0.1-0.1,0.1-0.2,0.2l-2.3,1.6
		c-0.3,0.2-0.6,0.6-0.6,1v4c0,0.2-0.1,0.5-0.2,0.7l-0.9,1.3c-0.2,0.4-0.7,0.6-1.1,0.6l-1.8-0.1c-0.6,0-1-0.5-1.1-1L438,314.1z"/>
	<path class="st82" d="M451,336c0,0-5,7-6,13s2,11,2,11l1-7c1-3,2-6,3-9c0.3-0.7,0.7-1.3,1-2c0.7,2,1.4,4,2,6l-1-12H451z"/>
	<path class="st5" d="M378.1,344.7c-4.1,5.2-9.7,13.5-13.5,24.7c-2.9,8.6-3.5,15.3-3.8,17.6c-1.3,11.5-6.5,30.8-24.2,65.4"/>
	<g>
		
			<linearGradient id="SVGID_68_" gradientUnits="userSpaceOnUse" x1="375.7859" y1="229.1445" x2="376.5927" y2="224.7953" gradientTransform="matrix(1 0 0 -1 0 570)">
			<stop  offset="0" style="stop-color:#9D99E3"/>
			<stop  offset="0.5513" style="stop-color:#00307C"/>
		</linearGradient>
		<polygon class="st83" points="376.7,347.4 380,347.4 378.4,343 376.7,343 374,347.4 		"/>
	</g>
	<line class="st18" x1="346" y1="456" x2="343" y2="463"/>
	<g>
		<path class="st80" d="M343.8,459.1c-77.1-30.5-154.2-61.1-231.3-91.6c0.8-2.1,1.7-4.2,2.5-6.2c77.7,30.9,155.3,61.8,233,92.7
			C346.6,455.7,345.2,457.4,343.8,459.1z"/>
	</g>
	<path class="st1" d="M348.9,451.3c0.6-0.9,1.2-1.7,1.8-2.6c1.6-2.3,5.1-2.4,6.8-0.1c14.6,19.4,29.2,38.7,43.8,58.1
		c5.3,7.1,16,6.9,21.1-0.3L511.7,381c1.9-2.7,6-2.3,7.3,0.7v0.1c0.6,1.3,0.5,2.9-0.4,4.1c-33.2,48.5-66.4,97-99.5,145.5
		c-1.3,1.9-2.9,1.9-3.6,1.8c-1.2,0-2.3-0.7-3.1-1.5c-21.1-25.1-42.2-50.2-63.3-75.3C347.9,455,347.8,452.9,348.9,451.3z"/>
	<path class="st84" d="M517.7,376.8l17,3.9l-2.5,4.5L425.8,544.1c0,0-5,4-9,0c-0.9-0.8-2.3-2-3.1-4c-0.3-0.7-0.4-1.2-0.5-1.7
		c36-51.7,72-103.5,107.9-155.2L517.7,376.8z"/>
	<path class="st85" d="M423.6,553.7c-26.5-31.6-53-63.1-79.5-94.7c1.2-1.6,2.3-3.1,3.5-4.7c26.7,31.4,53.4,62.7,80.1,94.1
		C426.3,550.2,424.9,552,423.6,553.7z"/>
	<polygon class="st85" points="534.5,379.5 535.5,391.5 426.5,556.5 423.5,553.5 421.5,550.8 427.5,540.5 	"/>
</g>
</svg>
